<svg xmlns="http://www.w3.org/2000/svg" width="24" height="24" viewBox="0 0 24 24" fill="#E60023" stroke-width="0"><path d="M12 2C6.477 2 2 6.477 2 12c0 4.418 2.866 8.168 6.737 9.499.088.16.12.34.034.513-.086.173-.26.288-.45.288H6.5c-.276 0-.5.224-.5.5s.224.5.5.5H10v1.5c0 .276.224.5.5.5s.5-.224.5-.5V23h2v-1.5c0-.276.224-.5.5-.5s.5.224.5.5V23h2v-1.5c0-.276.224-.5.5-.5s.5.224.5.5V23h3.5c.276 0 .5-.224.5-.5s-.224-.5-.5-.5h-1.82c-.19 0-.365-.115-.45-.288-.087-.173-.054-.353.033-.513C19.134 20.168 22 16.418 22 12c0-5.523-4.477-10-10-10zm-3.5 9c0-1.933 1.567-3.5 3.5-3.5s3.5 1.567 3.5 3.5c0 1.684-1.19 3.09-2.75 3.411V18.5c0 .276-.224.5-.5.5s-.5-.224-.5-.5v-4.089C7.69 14.09 6.5 12.684 6.5 11z"></path></svg>