<?xml version="1.0" encoding="utf-8"?>
<!--
  Ícono de TikTok (versión simplificada en SVG, sin texto)
  © TikTok es una marca registrada de ByteDance Ltd.
  Este archivo es una recreación vectorial con fines ilustrativos.
-->
<svg xmlns="http://www.w3.org/2000/svg"
     xmlns:xlink="http://www.w3.org/1999/xlink"
     width="100" height="100" viewBox="0 0 200 200"
     role="img" aria-label="TikTok icon">
  <title>TikTok icon</title>

  <defs>
    <path id="notePath" d="
      M120 20
      C120 8 108 0 96 0
      C84 0 72 8 72 20
      C72 32 96 40 96 56
      C96 72 72 84 72 104
      C72 136 100 160 140 152
      C160 148 180 136 180 112
      C180 88 164 80 148 80
      C148 64 148 48 148 32
      L148 20
      Z" />
    <path id="noteHole" d="
      M104 64
      A14 14 0 1 1 103.9 64
      Z" />
  </defs>

  <!-- Capa sombra cian -->
  <g transform="translate(-6,-4)">
    <use xlink:href="#notePath" fill="#25F4EE"/>
  </g>

  <!-- Capa sombra magenta -->
  <g transform="translate(6,4)">
    <use xlink:href="#notePath" fill="#FE2C55"/>
  </g>

  <!-- Capa principal negra -->
  <g>
    <use xlink:href="#notePath" fill="#0F0F0F"/>
    <use xlink:href="#noteHole" fill="#FFFFFF"/>
  </g>
</svg>
